<svg width="24" height="24" viewBox="0 0 24 24" fill="none" xmlns="http://www.w3.org/2000/svg">
<mask id="path-1-inside-1_992_612" fill="white">
<path d="M15.0499 5C16.0267 5.19057 16.9243 5.66826 17.628 6.37194C18.3317 7.07561 18.8094 7.97327 18.9999 8.95M15.0499 1C17.0792 1.22544 18.9715 2.13417 20.4162 3.57701C21.8608 5.01984 22.7719 6.91101 22.9999 8.94M21.9999 16.92V19.92C22.0011 20.1985 21.944 20.4742 21.8324 20.7293C21.7209 20.9845 21.5572 21.2136 21.352 21.4019C21.1468 21.5901 20.9045 21.7335 20.6407 21.8227C20.3769 21.9119 20.0973 21.9451 19.8199 21.92C16.7428 21.5856 13.7869 20.5341 11.1899 18.85C8.77376 17.3147 6.72527 15.2662 5.18993 12.85C3.49991 10.2412 2.44818 7.27099 2.11993 4.18C2.09494 3.90347 2.12781 3.62476 2.21643 3.36162C2.30506 3.09849 2.4475 2.85669 2.6347 2.65162C2.82189 2.44655 3.04974 2.28271 3.30372 2.17052C3.55771 2.05833 3.83227 2.00026 4.10993 2H7.10993C7.59524 1.99522 8.06573 2.16708 8.4337 2.48353C8.80167 2.79999 9.04201 3.23945 9.10993 3.72C9.23656 4.68007 9.47138 5.62273 9.80993 6.53C9.94448 6.88792 9.9736 7.27691 9.89384 7.65088C9.81409 8.02485 9.6288 8.36811 9.35993 8.64L8.08993 9.91C9.51349 12.4135 11.5864 14.4864 14.0899 15.91L15.3599 14.64C15.6318 14.3711 15.9751 14.1858 16.3491 14.1061C16.723 14.0263 17.112 14.0555 17.4699 14.19C18.3772 14.5286 19.3199 14.7634 20.2799 14.89C20.7657 14.9585 21.2093 15.2032 21.5265 15.5775C21.8436 15.9518 22.0121 16.4296 21.9999 16.92Z"/>
</mask>
<path d="M15.3372 3.52776C14.5241 3.36912 13.7363 3.89966 13.5777 4.71276C13.4191 5.52586 13.9496 6.3136 14.7627 6.47224L15.3372 3.52776ZM17.5277 9.23724C17.6863 10.0503 18.4741 10.5809 19.2872 10.4222C20.1003 10.2636 20.6308 9.47585 20.4722 8.66276L17.5277 9.23724ZM15.2156 -0.490829C14.3922 -0.582298 13.6506 0.0110189 13.5591 0.834381C13.4676 1.65774 14.061 2.39936 14.8843 2.49083L15.2156 -0.490829ZM21.5093 9.1075C21.6018 9.93074 22.3442 10.5231 23.1674 10.4306C23.9907 10.3381 24.5831 9.59575 24.4906 8.7725L21.5093 9.1075ZM21.9999 16.92L20.5004 16.8828C20.5001 16.8952 20.4999 16.9076 20.4999 16.92H21.9999ZM21.9999 19.92H20.4999L20.4999 19.9261L21.9999 19.92ZM19.8199 21.92L19.6579 23.4112C19.6669 23.4122 19.6759 23.4131 19.6849 23.4139L19.8199 21.92ZM11.1899 18.85L12.0061 17.5914L11.9944 17.584L11.1899 18.85ZM5.18993 12.85L6.456 12.0455L6.44885 12.0345L5.18993 12.85ZM2.11993 4.18L0.626021 4.315C0.626726 4.32281 0.627492 4.33061 0.62832 4.3384L2.11993 4.18ZM4.10993 2V0.499999L4.10852 0.500001L4.10993 2ZM7.10993 2V3.5C7.11485 3.5 7.11978 3.49998 7.1247 3.49993L7.10993 2ZM9.10993 3.72L10.5971 3.52386L10.5952 3.51007L9.10993 3.72ZM9.80993 6.53L8.40458 7.05441L8.40586 7.05779L9.80993 6.53ZM9.35993 8.64L10.4206 9.70068L10.4265 9.69471L9.35993 8.64ZM8.08993 9.91L7.02927 8.84934C6.5518 9.32681 6.45222 10.0645 6.78599 10.6514L8.08993 9.91ZM14.0899 15.91L13.3485 17.2139C13.9355 17.5477 14.6731 17.4481 15.1506 16.9707L14.0899 15.91ZM15.3599 14.64L14.3052 13.5734L14.2993 13.5793L15.3599 14.64ZM17.4699 14.19L16.9421 15.5941L16.9455 15.5953L17.4699 14.19ZM20.2799 14.89L20.4895 13.4046L20.4761 13.4029L20.2799 14.89ZM14.7627 6.47224C15.4464 6.60564 16.0748 6.94002 16.5673 7.4326L18.6887 5.31128C17.7739 4.39649 16.6069 3.77549 15.3372 3.52776L14.7627 6.47224ZM16.5673 7.4326C17.0599 7.92517 17.3943 8.55353 17.5277 9.23724L20.4722 8.66276C20.2244 7.393 19.6034 6.22606 18.6887 5.31128L16.5673 7.4326ZM14.8843 2.49083C16.5754 2.67869 18.1523 3.43597 19.3562 4.63833L21.4762 2.51568C19.7907 0.832375 17.583 -0.22782 15.2156 -0.490829L14.8843 2.49083ZM19.3562 4.63833C20.5601 5.8407 21.3193 7.41667 21.5093 9.1075L24.4906 8.7725C24.2246 6.40535 23.1616 4.19899 21.4762 2.51568L19.3562 4.63833ZM20.4999 16.92V19.92H23.4999V16.92H20.4999ZM20.4999 19.9261C20.5002 19.9957 20.486 20.0646 20.4581 20.1284L23.2068 21.3303C23.4021 20.8837 23.5019 20.4013 23.4999 19.9139L20.4999 19.9261ZM20.4581 20.1284C20.4302 20.1922 20.3893 20.2495 20.338 20.2966L22.3661 22.5072C22.7252 22.1777 23.0116 21.7768 23.2068 21.3303L20.4581 20.1284ZM20.338 20.2966C20.2867 20.3436 20.2261 20.3795 20.1601 20.4018L21.1212 23.2436C21.5829 23.0875 22.0069 22.8367 22.3661 22.5072L20.338 20.2966ZM20.1601 20.4018C20.0942 20.4241 20.0243 20.4324 19.9549 20.4261L19.6849 23.4139C20.1703 23.4578 20.6595 23.3998 21.1212 23.2436L20.1601 20.4018ZM19.982 20.4288C17.138 20.1198 14.4062 19.148 12.0061 17.5915L10.3738 20.1085C13.1676 21.9203 16.3475 23.0515 19.6579 23.4112L19.982 20.4288ZM11.9944 17.584C9.7641 16.1667 7.87319 14.2758 6.45595 12.0455L3.92391 13.6545C5.57735 16.2565 7.78342 18.4626 10.3855 20.116L11.9944 17.584ZM6.44885 12.0345C4.88693 9.62339 3.91491 6.87831 3.61155 4.0216L0.62832 4.3384C0.981442 7.66368 2.1129 10.859 3.93101 13.6656L6.44885 12.0345ZM3.61385 4.045C3.6076 3.97587 3.61581 3.90619 3.63797 3.84041L0.794896 2.88284C0.639802 3.34333 0.582289 3.83107 0.626021 4.315L3.61385 4.045ZM3.63797 3.84041C3.66013 3.77462 3.69574 3.71417 3.74254 3.6629L1.52686 1.64034C1.19927 1.99921 0.949991 2.42236 0.794896 2.88284L3.63797 3.84041ZM3.74254 3.6629C3.78934 3.61164 3.8463 3.57068 3.90979 3.54263L2.69765 0.798414C2.25318 0.994742 1.85445 1.28147 1.52686 1.64034L3.74254 3.6629ZM3.90979 3.54263C3.97329 3.51458 4.04193 3.50006 4.11135 3.5L4.10852 0.500001C3.62262 0.500458 3.14213 0.602086 2.69765 0.798414L3.90979 3.54263ZM4.10993 3.5H7.10993V0.5H4.10993V3.5ZM7.1247 3.49993C7.24602 3.49873 7.36364 3.5417 7.45564 3.62081L9.41175 1.34625C8.76781 0.79246 7.94446 0.491714 7.09517 0.500073L7.1247 3.49993ZM7.45564 3.62081C7.54763 3.69992 7.60772 3.80979 7.6247 3.92993L10.5952 3.51007C10.4763 2.6691 10.0557 1.90005 9.41175 1.34625L7.45564 3.62081ZM7.62281 3.91614C7.76423 4.98836 8.02649 6.04115 8.40459 7.05441L11.2153 6.00559C10.9163 5.20431 10.7089 4.37177 10.5971 3.52386L7.62281 3.91614ZM8.40586 7.05779C8.43949 7.14727 8.44677 7.24452 8.42683 7.33801L11.3608 7.96375C11.5004 7.30931 11.4495 6.62858 11.214 6.00221L8.40586 7.05779ZM8.42683 7.33801C8.40689 7.4315 8.36057 7.51732 8.29336 7.58529L10.4265 9.69471C10.897 9.2189 11.2213 8.61819 11.3608 7.96375L8.42683 7.33801ZM8.29927 7.57934L7.02927 8.84934L9.15059 10.9707L10.4206 9.70066L8.29927 7.57934ZM6.78599 10.6514C8.34301 13.3897 10.6102 15.6569 13.3485 17.2139L14.8314 14.6061C12.5625 13.316 10.684 11.4374 9.39388 9.16856L6.78599 10.6514ZM15.1506 16.9707L16.4206 15.7007L14.2993 13.5793L13.0293 14.8493L15.1506 16.9707ZM16.4146 15.7066C16.4826 15.6394 16.5684 15.593 16.6619 15.5731L16.0362 12.6391C15.3817 12.7787 14.781 13.1029 14.3052 13.5734L16.4146 15.7066ZM16.6619 15.5731C16.7554 15.5532 16.8527 15.5604 16.9421 15.5941L17.9977 12.7859C17.3714 12.5505 16.6906 12.4995 16.0362 12.6391L16.6619 15.5731ZM16.9455 15.5953C17.9588 15.9734 19.0116 16.2357 20.0838 16.3771L20.4761 13.4029C19.6282 13.291 18.7956 13.0837 17.9943 12.7847L16.9455 15.5953ZM20.0704 16.3753C20.1918 16.3924 20.3027 16.4536 20.382 16.5472L22.6709 14.6078C22.1159 13.9528 21.3396 13.5246 20.4895 13.4047L20.0704 16.3753ZM20.382 16.5472C20.4613 16.6407 20.5034 16.7602 20.5004 16.8828L23.4995 16.9572C23.5208 16.099 23.2259 15.2628 22.6709 14.6078L20.382 16.5472Z" fill="#1A1A1A" mask="url(#path-1-inside-1_992_612)"/>
</svg>
