<svg width="34" height="32" viewBox="0 0 34 32" fill="none" xmlns="http://www.w3.org/2000/svg">
<g clip-path="url(#clip0_977_202)">
<mask id="mask0_977_202" style="mask-type:luminance" maskUnits="userSpaceOnUse" x="0" y="0" width="33" height="32">
<path d="M0.593994 0.164673H32.4001V31.9707H0.593994V0.164673Z" fill="white"/>
</mask>
<g mask="url(#mask0_977_202)">
<path d="M16.497 31.9707C7.71117 31.9707 0.593994 24.8051 0.593994 16.0677C0.593994 7.33134 7.71117 0.164673 16.497 0.164673C25.2829 0.164673 32.4001 7.28185 32.4001 16.0677C32.4001 24.8536 25.2334 31.9707 16.497 31.9707ZM16.497 1.14649C8.25056 1.14649 1.57581 7.82225 1.57581 16.0677C1.57581 24.3142 8.25056 30.9889 16.497 30.9889C24.7425 30.9889 31.4182 24.3142 31.4182 16.0677C31.4182 7.82225 24.694 1.14649 16.497 1.14649Z" fill="#FFBF00"/>
</g>
<mask id="mask1_977_202" style="mask-type:luminance" maskUnits="userSpaceOnUse" x="1" y="11" width="31" height="16">
<path d="M1.29297 11.1191H31.2889V26.6343H1.29297V11.1191Z" fill="white"/>
</mask>
<g mask="url(#mask1_977_202)">
<mask id="mask2_977_202" style="mask-type:luminance" maskUnits="userSpaceOnUse" x="0" y="9" width="32" height="19">
<path d="M0.911133 11.3625L30.7334 9.73425L31.6101 25.808L1.7879 27.4353L0.911133 11.3625Z" fill="white"/>
</mask>
<g mask="url(#mask2_977_202)">
<mask id="mask3_977_202" style="mask-type:luminance" maskUnits="userSpaceOnUse" x="0" y="9" width="32" height="19">
<path d="M0.911133 11.3625L30.7334 9.73425L31.6101 25.808L1.7879 27.4353L0.911133 11.3625Z" fill="white"/>
</mask>
<g mask="url(#mask3_977_202)">
<path fill-rule="evenodd" clip-rule="evenodd" d="M14.7929 25.3989C14.9656 25.107 15.2222 24.6222 15.802 24.8727C16.3869 25.2171 15.9677 26.1818 15.6959 26.3848C15.4283 26.6828 14.9535 26.6141 14.7495 26.3424C14.4525 26.0767 14.5252 25.6959 14.7929 25.3989ZM3.82726 11.2111L7.09797 12.3515L7.13938 13.103L9.44342 13.8242C9.82928 13.9919 9.84443 14.2737 9.67675 14.6595L7.74746 20.7919C7.57978 21.1777 7.49594 21.3707 6.82221 21.1252L4.52322 20.4969L1.3313 19.0696L3.82726 11.2111ZM23.397 13.6282L27.5232 11.4252L31.2818 19.7898L27.8778 21.3878C26.9626 21.909 25.8444 22.1585 24.7838 21.7454C24.7788 21.6515 24.9566 21.4535 24.8363 20.9888C24.4576 19.2202 23.3323 15.8919 22.3404 15.004L23.5374 14.4676L23.397 13.6282ZM10.3353 14.6232L8.48483 20.4686C8.8818 20.8242 9.17877 21.0909 9.57069 21.3515C11.3757 19.8404 12.2151 21.3959 12.1566 22.0575C12.9929 21.8242 13.6828 22.3515 13.7182 23.009C14.7333 22.5767 15.6202 23.2818 15.5778 24.2252C16.4293 24.2737 16.8464 25.004 16.705 25.8595C17.7707 26.3666 18.2353 26.2464 18.299 25.6777C19.6363 25.9818 20.2747 25.5707 20.0454 24.8292C21.2 25.2373 22.303 24.706 21.6879 23.7979C22.7273 23.8353 23.3707 23.5181 23.4242 22.7616L23.3343 22.8606L20.3737 20.4797C18.9273 19.8989 17.3656 18.9484 16.902 17.3727L16.0555 17.4191C14.7394 20.9757 11.1515 19.1929 13.1081 17.0151C13.3747 16.7171 12.5353 15.1626 14.104 14.5121C12.9697 14.4797 11.5586 14.5565 10.3353 14.6232ZM13.5101 17.4636C13.7818 17.2606 13.7616 16.8848 13.7 15.7585C13.7838 15.5656 13.9566 15.2737 14.3232 15.0646L16.8172 14.0808C17.1879 13.9666 17.4707 13.9515 17.9454 14.0191C19.006 14.4323 19.9727 14.8505 21.1172 15.0707C21.5919 15.1393 21.8848 15.3111 22.198 15.8595C23.0323 17.3212 23.7828 18.9747 24.1525 20.5555C24.397 21.5787 24.199 21.401 23.2939 22.109C22.4111 21.4979 21.5182 20.6999 20.7202 19.8959C18.797 19.2474 17.602 18.0878 17.3414 16.7838L15.6485 16.8757C15.4071 17.6424 15.0616 18.2262 14.4283 18.7323C14.0626 18.9404 13.498 18.9707 13.2899 18.606C12.9869 18.2454 13.1444 17.6717 13.5101 17.4636ZM9.88382 21.8999C10.2444 21.5969 10.7788 21.003 11.3737 21.5353C11.9687 22.0686 11.2515 22.7666 10.9848 23.0636C10.6192 23.2717 10.1485 23.2979 9.84645 22.9373C9.64241 22.6656 9.61716 22.1969 9.88382 21.8999ZM11.3717 23.2313C11.7323 22.9282 12.4495 22.2303 12.9505 22.7676C13.4464 23.2121 12.8394 24.1868 12.4788 24.4888C12.2111 24.7858 11.6414 24.7232 11.3394 24.3626C11.0363 24.003 11.105 23.5282 11.3717 23.2313ZM13.1313 24.3595C13.4929 24.0565 14.1 23.0818 14.6949 23.6151C15.3848 24.1424 14.4949 25.1323 14.1343 25.4343C13.8667 25.7313 13.3919 25.6636 13.0939 25.3969C12.8848 25.0323 12.8646 24.6565 13.1313 24.3595Z" fill="#FFBF00"/>
</g>
</g>
</g>
</g>
<defs>
<clipPath id="clip0_977_202">
<rect width="33.099" height="32" fill="white"/>
</clipPath>
</defs>
</svg>
