<svg width="40" height="40" viewBox="0 0 40 40" fill="none" xmlns="http://www.w3.org/2000/svg">
<mask id="mask0_977_531" style="mask-type:luminance" maskUnits="userSpaceOnUse" x="8" y="11" width="24" height="18">
<path d="M8.20508 11.8908H31.7251V28.0508H8.20508V11.8908Z" fill="white"/>
</mask>
<g mask="url(#mask0_977_531)">
<path d="M31.7113 20.2925C31.7088 20.275 31.7122 20.2592 31.7072 20.2417L30.9913 17.72V14.8292C30.9913 14.745 30.958 14.6708 30.9105 14.6083C30.908 14.605 30.9063 14.6017 30.903 14.5983C30.883 14.5742 30.8597 14.5542 30.8338 14.5358C30.823 14.5275 30.8113 14.52 30.7997 14.5125C30.7772 14.5 30.7538 14.49 30.7288 14.4825C30.7197 14.4792 30.7113 14.4733 30.7013 14.4717L19.678 11.9C19.623 11.8867 19.5655 11.8867 19.5105 11.9L8.49134 14.4717C8.32551 14.51 8.20801 14.6583 8.20801 14.8292C8.20801 15 8.32551 15.1475 8.49134 15.1867L13.3513 16.3208V22.1367C13.3505 22.1492 13.3438 22.16 13.3438 22.1725C13.3438 22.9858 14.0063 23.6475 14.8197 23.6475C14.8197 23.6475 14.8205 23.6475 14.8213 23.6475V24.3792C14.8213 24.5825 14.9855 24.7467 15.1888 24.7467H15.4438C15.4955 24.8933 15.5547 25.0358 15.6205 25.1758L15.4405 25.355C15.3713 25.4242 15.333 25.5175 15.333 25.615C15.333 25.7125 15.3713 25.8058 15.4405 25.875L16.9997 27.4317C17.143 27.5758 17.3755 27.5758 17.5188 27.4317L17.7005 27.2508C17.8388 27.3167 17.9822 27.375 18.1288 27.4267V27.6842C18.1288 27.7817 18.1672 27.875 18.2363 27.9442C18.3055 28.0125 18.398 28.0517 18.4963 28.0517L20.7005 28.0508C20.9038 28.0508 21.068 27.8867 21.068 27.6833V27.4267C21.2147 27.375 21.3572 27.3158 21.4955 27.2508L21.6772 27.4317C21.8155 27.57 22.0588 27.57 22.1972 27.4317L23.7555 25.8742C23.8988 25.73 23.8988 25.4983 23.7555 25.355L23.5747 25.1742C23.6405 25.0358 23.6997 24.8925 23.7513 24.7467H24.0072C24.2105 24.7467 24.3747 24.5825 24.3747 24.3792V23.6475H24.3763C25.1897 23.6475 25.8522 22.985 25.8522 22.1725C25.8522 22.155 25.8447 22.1392 25.8422 22.1225V16.32L30.2563 15.2908V17.72L29.5363 20.2417C29.5305 20.2592 29.5338 20.2758 29.5322 20.2933C29.5297 20.31 29.5222 20.325 29.5222 20.3425C29.5222 20.35 29.5263 20.3567 29.5263 20.3642C29.528 20.39 29.5347 20.4142 29.5413 20.4392C29.548 20.4608 29.5522 20.4825 29.5622 20.5025C29.573 20.5233 29.5863 20.5408 29.6013 20.5592C29.6155 20.5783 29.628 20.5975 29.6463 20.6133C29.663 20.6283 29.6822 20.6383 29.7013 20.6508C29.7238 20.6642 29.7438 20.6767 29.7688 20.6858C29.7763 20.6883 29.7813 20.6933 29.7888 20.6958C29.8222 20.705 29.8555 20.7092 29.8888 20.71C29.8888 20.71 29.8888 20.71 29.8897 20.71H31.3538C31.3538 20.71 31.3538 20.71 31.3547 20.71C31.3872 20.7092 31.4205 20.705 31.4538 20.6958C31.4613 20.6933 31.4672 20.6883 31.4738 20.6858C31.498 20.6767 31.5197 20.6642 31.5413 20.6508C31.5605 20.6392 31.5805 20.6283 31.5972 20.6133C31.6147 20.5975 31.628 20.5792 31.6413 20.56C31.6563 20.5408 31.6705 20.5233 31.6805 20.5025C31.6905 20.4817 31.6955 20.46 31.7013 20.4383C31.7088 20.4133 31.7147 20.39 31.7163 20.3642C31.7172 20.3567 31.7213 20.35 31.7213 20.3425C31.7213 20.3242 31.7138 20.3092 31.7113 20.2925ZM30.623 19.1133L30.8672 19.975H30.3772L30.623 19.1133ZM19.5938 12.6342L27.4263 14.4617H19.5938C19.3905 14.4617 19.2263 14.6258 19.2263 14.8292C19.2263 15.0325 19.3905 15.1967 19.5938 15.1967H27.4255L19.5938 17.0225L10.1913 14.8292L19.5938 12.6342ZM23.6397 24.0117H23.483C23.3188 24.0117 23.1738 24.1208 23.1297 24.2783C23.0505 24.5558 22.9413 24.8208 22.8047 25.0642C22.7238 25.2083 22.7488 25.3875 22.8647 25.5042L22.9755 25.6142L21.9372 26.6533L21.8255 26.5417C21.7097 26.425 21.5297 26.4008 21.3863 26.48C21.143 26.6158 20.8788 26.725 20.5997 26.805C20.4422 26.8492 20.333 26.9942 20.333 27.1583V27.3167H18.8638V27.1583C18.8638 26.9942 18.7547 26.8492 18.5963 26.805C18.318 26.7258 18.053 26.6167 17.8088 26.4808C17.7522 26.4492 17.6913 26.4342 17.6297 26.4342C17.5347 26.4342 17.4405 26.4708 17.3697 26.5417L17.2588 26.6525L16.2197 25.615L16.3305 25.5042C16.4472 25.3883 16.4722 25.2083 16.3913 25.065C16.2538 24.8208 16.1447 24.5558 16.0655 24.2783C16.0205 24.12 15.8763 24.0108 15.7122 24.0108H15.5555V22.5425H15.7097C15.8738 22.5425 16.0188 22.4333 16.063 22.275C16.143 21.9958 16.2522 21.73 16.3888 21.4858C16.4688 21.3425 16.4438 21.1633 16.328 21.0467L16.2205 20.94L17.2588 19.9008L17.3663 20.0075C17.4822 20.1242 17.6613 20.1483 17.8055 20.0692C18.0505 19.9317 18.3172 19.8217 18.5955 19.7425C18.7538 19.6975 18.863 19.5533 18.863 19.3892V19.2375H20.3322V19.3892C20.3322 19.5533 20.4413 19.6983 20.5997 19.7425C20.8788 19.8217 21.1438 19.9317 21.3888 20.0692C21.5322 20.1492 21.7122 20.125 21.8288 20.0083L21.9363 19.9017L22.9747 20.94L22.868 21.0483C22.7513 21.1642 22.7263 21.3433 22.8063 21.4867C22.9422 21.73 23.0522 21.9958 23.1313 22.2758C23.1763 22.4342 23.3205 22.5433 23.4847 22.5433H23.6397V24.0117ZM25.1138 22.2092C25.0938 22.6 24.7722 22.9125 24.3763 22.9125H24.3747V22.1758C24.3747 21.9725 24.2105 21.8083 24.0072 21.8083H23.7547C23.7022 21.6608 23.643 21.5167 23.5772 21.3775L23.7555 21.2C23.8988 21.0558 23.8988 20.8242 23.7555 20.68L22.1972 19.1225C22.053 18.9792 21.8213 18.9792 21.6772 19.1225L21.5005 19.2992C21.3605 19.2333 21.2163 19.1733 21.068 19.1217V18.8708C21.068 18.6675 20.9038 18.5033 20.7013 18.5033H18.4963C18.2938 18.5033 18.1297 18.6675 18.1297 18.8708V19.1208C17.9813 19.1733 17.8363 19.2325 17.6963 19.2992L17.5197 19.1225C17.3822 18.985 17.138 18.985 17.0005 19.1225L15.4422 20.68C15.2988 20.8242 15.2988 21.0558 15.4422 21.2L15.6197 21.3767C15.553 21.5167 15.4938 21.6608 15.4422 21.8083H15.1888C14.9855 21.8083 14.8213 21.9725 14.8213 22.1758V22.9083H14.8197C14.8147 22.9083 14.8105 22.9108 14.8055 22.9108C14.413 22.9033 14.0963 22.59 14.0822 22.1992C14.0822 22.1917 14.0863 22.1858 14.0863 22.1775V16.4917L19.5105 17.7575C19.538 17.7642 19.5663 17.7675 19.5938 17.7675C19.6222 17.7675 19.6497 17.7642 19.678 17.7575L25.1072 16.4917V22.1775C25.1072 22.1883 25.113 22.1975 25.1138 22.2092Z" fill="#667085"/>
</g>
<path d="M19.5979 21.805C18.7871 21.805 18.1279 22.4642 18.1279 23.2742C18.1279 24.0842 18.7871 24.7433 19.5979 24.7433C20.4088 24.7433 21.0679 24.0842 21.0679 23.2742C21.0679 22.4642 20.4088 21.805 19.5979 21.805ZM19.5979 24.0083C19.1929 24.0083 18.8629 23.6792 18.8629 23.2742C18.8629 22.8692 19.1929 22.5392 19.5979 22.5392C20.0038 22.5392 20.3329 22.8692 20.3329 23.2742C20.3329 23.6792 20.0029 24.0083 19.5979 24.0083Z" fill="#667085"/>
<path d="M19.5979 20.7033C18.1796 20.7033 17.0254 21.8567 17.0254 23.2742C17.0254 24.6917 18.1796 25.845 19.5979 25.845C21.0162 25.845 22.1704 24.6917 22.1704 23.2742C22.1704 21.8567 21.0162 20.7033 19.5979 20.7033ZM19.5979 25.1108C18.5846 25.1108 17.7604 24.2867 17.7604 23.2742C17.7604 22.2617 18.5846 21.4375 19.5979 21.4375C20.6112 21.4375 21.4354 22.2617 21.4354 23.2742C21.4354 24.2867 20.6112 25.1108 19.5979 25.1108Z" fill="#667085"/>
</svg>
