<svg width="40" height="40" viewBox="0 0 40 40" fill="none" xmlns="http://www.w3.org/2000/svg">
<path d="M18.0297 16.0943C17.8897 15.9543 17.7839 15.7909 17.7131 15.6059C17.6422 15.4201 17.6122 15.2284 17.6231 15.0301L17.7097 13.4734C17.7206 13.2801 17.6914 13.0934 17.6222 12.9118C17.5531 12.7309 17.4497 12.5726 17.3131 12.4351L15.9839 11.1059C15.8481 10.9701 15.6897 10.8676 15.5097 10.7984C15.3306 10.7293 15.1439 10.6993 14.9522 10.7093L13.6297 10.7768C13.5656 10.7801 13.5081 10.8001 13.4564 10.8376C13.4047 10.8751 13.3681 10.9234 13.3447 10.9834C13.3222 11.0426 13.3172 11.1043 13.3306 11.1659C13.3439 11.2284 13.3731 11.2826 13.4181 11.3276L14.3756 12.2851C14.4439 12.3534 14.5056 12.4284 14.5589 12.5093C14.6131 12.5901 14.6589 12.6751 14.6956 12.7643C14.7331 12.8543 14.7606 12.9468 14.7797 13.0418C14.7989 13.1368 14.8081 13.2334 14.8081 13.3301C14.8081 13.4276 14.7989 13.5234 14.7797 13.6184C14.7606 13.7143 14.7331 13.8068 14.6956 13.8959C14.6589 13.9859 14.6131 14.0709 14.5589 14.1518C14.5056 14.2326 14.4439 14.3068 14.3756 14.3759C14.3064 14.4443 14.2322 14.5059 14.1514 14.5593C14.0706 14.6134 13.9856 14.6593 13.8956 14.6959C13.8064 14.7334 13.7139 14.7609 13.6181 14.7801C13.5231 14.7993 13.4272 14.8084 13.3297 14.8084C13.2331 14.8084 13.1372 14.7993 13.0414 14.7801C12.9464 14.7609 12.8539 14.7334 12.7647 14.6959C12.6747 14.6593 12.5897 14.6134 12.5089 14.5593C12.4281 14.5059 12.3531 14.4443 12.2847 14.3759L11.3272 13.4184C11.2822 13.3734 11.2281 13.3443 11.1656 13.3309C11.1039 13.3176 11.0422 13.3218 10.9831 13.3451C10.9239 13.3676 10.8747 13.4051 10.8372 13.4568C10.7997 13.5084 10.7797 13.5659 10.7764 13.6301L10.7089 14.9518C10.6989 15.1443 10.7289 15.3309 10.7981 15.5101C10.8672 15.6901 10.9697 15.8484 11.1056 15.9843L12.4347 17.3134C12.5722 17.4501 12.7306 17.5534 12.9114 17.6226C13.0931 17.6918 13.2797 17.7209 13.4731 17.7101L15.0297 17.6234C15.2281 17.6126 15.4197 17.6426 15.6056 17.7134C15.7906 17.7843 15.9539 17.8901 16.0939 18.0301L19.0456 20.9818L21.9972 23.9326C22.1372 24.0734 22.2431 24.2368 22.3139 24.4218C22.3847 24.6076 22.4147 24.7993 22.4039 24.9976L22.3172 26.5543C22.3064 26.7476 22.3356 26.9343 22.4047 27.1151C22.4739 27.2968 22.5772 27.4551 22.7139 27.5926L24.0431 28.9218C24.1789 29.0576 24.3372 29.1601 24.5172 29.2293C24.6964 29.2984 24.8831 29.3284 25.0747 29.3184L26.3972 29.2509C26.4606 29.2476 26.5189 29.2268 26.5706 29.1901C26.6222 29.1526 26.6589 29.1034 26.6822 29.0443C26.7047 28.9851 26.7097 28.9234 26.6964 28.8609C26.6831 28.7993 26.6539 28.7451 26.6089 28.7001L25.6514 27.7426C25.5831 27.6743 25.5214 27.5993 25.4681 27.5184C25.4139 27.4376 25.3681 27.3526 25.3314 27.2626C25.2939 27.1734 25.2656 27.0809 25.2472 26.9859C25.2281 26.8901 25.2189 26.7943 25.2189 26.6976C25.2189 26.6001 25.2281 26.5043 25.2472 26.4093C25.2656 26.3134 25.2939 26.2209 25.3314 26.1318C25.3681 26.0418 25.4139 25.9568 25.4681 25.8759C25.5214 25.7951 25.5831 25.7209 25.6514 25.6518C25.7206 25.5834 25.7947 25.5218 25.8756 25.4684C25.9564 25.4143 26.0414 25.3684 26.1314 25.3318C26.2206 25.2943 26.3131 25.2659 26.4081 25.2476C26.5039 25.2284 26.5997 25.2193 26.6972 25.2193C26.7939 25.2193 26.8897 25.2284 26.9856 25.2476C27.0806 25.2659 27.1731 25.2943 27.2622 25.3318C27.3522 25.3684 27.4372 25.4143 27.5181 25.4684C27.5989 25.5218 27.6739 25.5834 27.7422 25.6518L28.6997 26.6093C28.7447 26.6543 28.7989 26.6834 28.8606 26.6968C28.9231 26.7101 28.9839 26.7051 29.0439 26.6826C29.1031 26.6593 29.1522 26.6226 29.1889 26.5709C29.2264 26.5193 29.2472 26.4609 29.2506 26.3976L29.3181 25.0751C29.3281 24.8834 29.2981 24.6968 29.2289 24.5176C29.1597 24.3376 29.0572 24.1793 28.9206 24.0434L27.5922 22.7143C27.4547 22.5776 27.2964 22.4743 27.1147 22.4051C26.9339 22.3359 26.7472 22.3068 26.5539 22.3176L24.9972 22.4043C24.7989 22.4151 24.6072 22.3851 24.4214 22.3143C24.2364 22.2434 24.0731 22.1376 23.9322 21.9976L20.9814 19.0459L18.0297 16.0943Z" fill="#667085"/>
<path d="M16.1142 23.9141C16.4358 24.2358 16.7917 24.5133 17.1825 24.7466C17.5725 24.9799 17.9858 25.1624 18.4217 25.2941C18.8567 25.4249 19.3017 25.5008 19.7567 25.5224C20.2108 25.5433 20.6608 25.5091 21.1067 25.4183C21.1617 25.4074 21.2142 25.3874 21.2625 25.3591C21.3108 25.3308 21.3542 25.2958 21.3908 25.2533C21.4275 25.2108 21.4567 25.1633 21.4775 25.1108C21.4992 25.0583 21.5108 25.0041 21.5142 24.9483C21.5225 24.7983 21.4733 24.6699 21.3675 24.5633L20.8233 24.0199C20.7383 23.9358 20.64 23.8724 20.5275 23.8299C20.4158 23.7874 20.3 23.7691 20.18 23.7758C20.05 23.7816 19.92 23.7799 19.79 23.7724C19.66 23.7649 19.5308 23.7499 19.4025 23.7291C19.2733 23.7083 19.1467 23.6799 19.0208 23.6458C18.895 23.6116 18.7717 23.5708 18.6508 23.5233C18.5292 23.4766 18.4108 23.4233 18.295 23.3633C18.1783 23.3041 18.0667 23.2391 17.9575 23.1674C17.8483 23.0966 17.7433 23.0199 17.6417 22.9374C17.5408 22.8558 17.4442 22.7683 17.3517 22.6766C17.26 22.5841 17.1725 22.4874 17.0908 22.3866C17.0083 22.2858 16.9317 22.1799 16.8608 22.0716C16.79 21.9624 16.7242 21.8499 16.665 21.7341C16.6058 21.6183 16.5525 21.4991 16.505 21.3783C16.4575 21.2566 16.4167 21.1333 16.3825 21.0074C16.3483 20.8816 16.3208 20.7549 16.2992 20.6266C16.2783 20.4974 16.2633 20.3683 16.2558 20.2383C16.2483 20.1083 16.2475 19.9783 16.2525 19.8483C16.2592 19.7283 16.2408 19.6124 16.1983 19.5008C16.1558 19.3891 16.0925 19.2899 16.0083 19.2049L15.465 18.6608C15.3583 18.5549 15.2308 18.5058 15.08 18.5141C15.0242 18.5174 14.97 18.5291 14.9175 18.5508C14.8658 18.5716 14.8183 18.6008 14.7758 18.6374C14.7333 18.6741 14.6975 18.7174 14.6692 18.7658C14.6408 18.8149 14.6208 18.8666 14.61 18.9216C14.52 19.3674 14.485 19.8174 14.5058 20.2716C14.5275 20.7266 14.6033 21.1716 14.735 21.6066C14.8658 22.0424 15.0483 22.4558 15.2817 22.8458C15.515 23.2366 15.7925 23.5924 16.1142 23.9141Z" fill="#667085"/>
<mask id="mask0_977_498" style="mask-type:luminance" maskUnits="userSpaceOnUse" x="9" y="17" width="13" height="14">
<path d="M9.45508 17.9199H21.9726V30.5758H9.45508V17.9199Z" fill="#667085"/>
</mask>
<g mask="url(#mask0_977_498)">
<path d="M15.4824 24.5449C15.1141 24.1757 14.7949 23.7682 14.5258 23.3207C14.2566 22.874 14.0449 22.4015 13.8916 21.9032C13.7383 21.4049 13.6466 20.8949 13.6174 20.374C13.5883 19.8532 13.6224 19.3365 13.7191 18.824C13.7249 18.7957 13.7233 18.7674 13.7158 18.739C13.7083 18.7115 13.6949 18.6865 13.6758 18.6649C13.6566 18.6424 13.6333 18.6265 13.6066 18.6149C13.5799 18.604 13.5516 18.599 13.5233 18.6007C13.0424 18.6265 12.5991 18.5115 12.1933 18.254C11.9866 18.1224 11.7616 18.0774 11.5208 18.1182L9.90743 18.3907C9.8441 18.4007 9.78493 18.4224 9.7291 18.454C9.67243 18.4865 9.6241 18.5265 9.58243 18.5757C9.54077 18.6249 9.5091 18.6799 9.48743 18.7399C9.46494 18.8007 9.4541 18.8632 9.4541 18.9274V21.0999C9.4541 21.1649 9.46494 21.2274 9.48743 21.2874C9.5091 21.3482 9.54077 21.4024 9.58243 21.4515C9.6241 21.5007 9.67327 21.5415 9.7291 21.5732C9.78493 21.6049 9.8441 21.6265 9.90743 21.6374L12.2816 22.0382C12.4658 22.7474 12.7433 23.4182 13.1141 24.0507L11.7199 26.0124C11.6824 26.064 11.6558 26.1215 11.6383 26.184C11.6216 26.2457 11.6158 26.309 11.6208 26.3732C11.6266 26.4374 11.6424 26.4982 11.6699 26.5565C11.6966 26.6149 11.7333 26.6674 11.7791 26.7124L12.5466 27.4807L13.3149 28.249C13.3608 28.294 13.4124 28.3307 13.4708 28.3574C13.5291 28.3849 13.5908 28.4007 13.6549 28.4065C13.7191 28.4115 13.7816 28.4057 13.8441 28.389C13.9058 28.3715 13.9633 28.3449 14.0158 28.3074L15.9774 26.9132C16.6099 27.284 17.2799 27.5615 17.9891 27.7457L18.3908 30.1199C18.4016 30.1832 18.4224 30.2424 18.4541 30.299C18.4866 30.3549 18.5266 30.4032 18.5758 30.4449C18.6249 30.4865 18.6799 30.5182 18.7399 30.5399C18.8008 30.5624 18.8633 30.5732 18.9274 30.5732H21.1008C21.1649 30.5732 21.2274 30.5624 21.2874 30.5399C21.3483 30.5182 21.4024 30.4865 21.4516 30.4449C21.5008 30.4032 21.5416 30.3549 21.5733 30.299C21.6058 30.2424 21.6266 30.1832 21.6374 30.1199L21.9099 28.5065C21.9508 28.2649 21.9049 28.0407 21.7741 27.834C21.5166 27.4282 21.4008 26.9849 21.4274 26.504C21.4291 26.4749 21.4241 26.4474 21.4124 26.4207C21.4016 26.394 21.3849 26.3707 21.3633 26.3515C21.3416 26.3324 21.3166 26.319 21.2883 26.3115C21.2608 26.3032 21.2324 26.3024 21.2041 26.3074C20.6916 26.4049 20.1749 26.439 19.6533 26.4099C19.1324 26.3807 18.6233 26.289 18.1249 26.1357C17.6258 25.9824 17.1533 25.7707 16.7066 25.5015C16.2591 25.2324 15.8516 24.9132 15.4824 24.5449Z" fill="#667085"/>
</g>
<path d="M23.9146 16.1131C23.5929 15.7915 23.2371 15.514 22.8462 15.2806C22.4562 15.0473 22.0429 14.8648 21.6071 14.7331C21.1721 14.6023 20.7271 14.5256 20.2721 14.5048C19.8179 14.484 19.3679 14.5181 18.9221 14.609C18.8671 14.6198 18.8146 14.6398 18.7662 14.6681C18.7171 14.6965 18.6746 14.7315 18.6379 14.774C18.6012 14.8165 18.5721 14.864 18.5504 14.9165C18.5296 14.969 18.5179 15.0231 18.5146 15.079C18.5062 15.229 18.5554 15.3573 18.6612 15.464L19.2054 16.0073C19.2904 16.0915 19.3887 16.1548 19.5012 16.1973C19.6129 16.2398 19.7287 16.2581 19.8487 16.2515C19.9787 16.2456 20.1087 16.2465 20.2387 16.2548C20.3687 16.2623 20.4979 16.2765 20.6262 16.2981C20.7546 16.319 20.8821 16.3473 21.0079 16.3815C21.1329 16.4156 21.2571 16.4565 21.3779 16.504C21.4996 16.5506 21.6179 16.604 21.7337 16.664C21.8496 16.7231 21.9621 16.7881 22.0712 16.8598C22.1804 16.9306 22.2854 17.0073 22.3871 17.0898C22.4879 17.1715 22.5846 17.259 22.6762 17.3506C22.7687 17.4431 22.8554 17.5398 22.9379 17.6406C23.0196 17.7415 23.0962 17.8465 23.1679 17.9556C23.2387 18.0648 23.3046 18.1773 23.3637 18.2931C23.4229 18.409 23.4762 18.5281 23.5237 18.649C23.5712 18.7706 23.6121 18.894 23.6462 19.0198C23.6804 19.1456 23.7079 19.2723 23.7296 19.4006C23.7504 19.5298 23.7646 19.659 23.7729 19.789C23.7804 19.919 23.7812 20.049 23.7754 20.179C23.7696 20.2981 23.7879 20.414 23.8304 20.5265C23.8729 20.6381 23.9362 20.7373 24.0196 20.8223L24.5637 21.3656C24.6704 21.4723 24.7979 21.5215 24.9479 21.5131C25.0046 21.5098 25.0587 21.4973 25.1112 21.4765C25.1629 21.4556 25.2104 21.4265 25.2529 21.3898C25.2954 21.3523 25.3312 21.3098 25.3596 21.2615C25.3879 21.2123 25.4079 21.1606 25.4187 21.1056C25.5087 20.6598 25.5437 20.2098 25.5221 19.7548C25.5012 19.3006 25.4254 18.8556 25.2937 18.4206C25.1629 17.9848 24.9804 17.5715 24.7471 17.1815C24.5137 16.7906 24.2362 16.4348 23.9146 16.1131Z" fill="#667085"/>
<mask id="mask1_977_498" style="mask-type:luminance" maskUnits="userSpaceOnUse" x="17" y="9" width="14" height="13">
<path d="M17.9199 9.45557H30.5758V21.9731H17.9199V9.45557Z" fill="#667085"/>
</mask>
<g mask="url(#mask1_977_498)">
<path d="M26.0118 11.7196L24.0501 13.1137C23.4184 12.7429 22.7476 12.4654 22.0384 12.2804L21.6368 9.90707C21.6259 9.84374 21.6051 9.78374 21.5734 9.7279C21.5409 9.67207 21.5009 9.62374 21.4518 9.58207C21.4026 9.5404 21.3476 9.50874 21.2876 9.48624C21.2268 9.46457 21.1643 9.45374 21.1001 9.45374H18.9276C18.8626 9.45374 18.8009 9.46457 18.7401 9.48624C18.6801 9.50874 18.6251 9.5404 18.5759 9.58207C18.5268 9.62374 18.4859 9.67207 18.4543 9.7279C18.4226 9.78374 18.4009 9.84374 18.3901 9.90707L18.1176 11.5204C18.0776 11.7612 18.1226 11.9862 18.2543 12.1929C18.5118 12.5987 18.6268 13.0421 18.6009 13.5229C18.5993 13.5512 18.6034 13.5796 18.6151 13.6062C18.6259 13.6329 18.6426 13.6562 18.6643 13.6754C18.6868 13.6946 18.7109 13.7079 18.7393 13.7154C18.7676 13.7229 18.7959 13.7246 18.8243 13.7187C18.9518 13.6946 19.0801 13.6746 19.2084 13.6579C19.3376 13.6421 19.4668 13.6296 19.5959 13.6204C19.7259 13.6121 19.8551 13.6079 19.9851 13.6071C20.1151 13.6062 20.2451 13.6096 20.3743 13.6171C20.5043 13.6237 20.6334 13.6354 20.7618 13.6504C20.8909 13.6654 21.0193 13.6846 21.1476 13.7071C21.2751 13.7304 21.4018 13.7571 21.5284 13.7879C21.6543 13.8179 21.7793 13.8529 21.9034 13.8912C22.0276 13.9287 22.1501 13.9712 22.2718 14.0171C22.3934 14.0629 22.5134 14.1121 22.6318 14.1646C22.7501 14.2179 22.8668 14.2746 22.9818 14.3346C23.0968 14.3946 23.2101 14.4579 23.3218 14.5254C23.4326 14.5921 23.5418 14.6621 23.6484 14.7362C23.7559 14.8096 23.8601 14.8862 23.9626 14.9662C24.0643 15.0462 24.1643 15.1296 24.2618 15.2154C24.3584 15.3012 24.4534 15.3904 24.5451 15.4821C24.6368 15.5737 24.7259 15.6687 24.8118 15.7654C24.8976 15.8629 24.9809 15.9629 25.0609 16.0646C25.1409 16.1671 25.2176 16.2721 25.2909 16.3787C25.3651 16.4854 25.4351 16.5946 25.5018 16.7054C25.5693 16.8171 25.6326 16.9304 25.6926 17.0454C25.7526 17.1604 25.8093 17.2771 25.8626 17.3954C25.9151 17.5137 25.9651 17.6337 26.0101 17.7554C26.0559 17.8771 26.0984 17.9996 26.1359 18.1237C26.1743 18.2479 26.2093 18.3729 26.2393 18.4987C26.2701 18.6254 26.2968 18.7521 26.3201 18.8804C26.3426 19.0079 26.3618 19.1362 26.3768 19.2654C26.3918 19.3937 26.4034 19.5229 26.4101 19.6529C26.4176 19.7829 26.4209 19.9121 26.4201 20.0421C26.4193 20.1721 26.4151 20.3012 26.4068 20.4312C26.3976 20.5604 26.3851 20.6896 26.3693 20.8187C26.3526 20.9471 26.3326 21.0754 26.3084 21.2029C26.3026 21.2312 26.3043 21.2596 26.3118 21.2879C26.3193 21.3154 26.3326 21.3404 26.3518 21.3621C26.3709 21.3846 26.3943 21.4004 26.4209 21.4121C26.4476 21.4229 26.4759 21.4279 26.5043 21.4262C26.9851 21.4004 27.4284 21.5154 27.8343 21.7729C28.0409 21.9046 28.2659 21.9496 28.5068 21.9087L30.1201 21.6362C30.1834 21.6254 30.2434 21.6046 30.2993 21.5729C30.3551 21.5404 30.4034 21.5004 30.4451 21.4512C30.4868 21.4021 30.5184 21.3471 30.5409 21.2871C30.5626 21.2262 30.5734 21.1637 30.5734 21.0996V18.9271C30.5734 18.8621 30.5626 18.8004 30.5409 18.7396C30.5184 18.6796 30.4868 18.6246 30.4451 18.5754C30.4034 18.5262 30.3551 18.4854 30.2993 18.4537C30.2434 18.4221 30.1834 18.4004 30.1201 18.3896L27.7468 17.9887C27.5618 17.2796 27.2843 16.6087 26.9143 15.9762L28.3076 14.0154C28.3451 13.9629 28.3726 13.9054 28.3893 13.8429C28.4059 13.7812 28.4118 13.7179 28.4068 13.6537C28.4009 13.5896 28.3851 13.5287 28.3576 13.4704C28.3309 13.4121 28.2943 13.3604 28.2493 13.3146L26.7126 11.7779C26.6668 11.7329 26.6151 11.6962 26.5568 11.6696C26.4984 11.6421 26.4368 11.6262 26.3726 11.6204C26.3084 11.6154 26.2459 11.6212 26.1834 11.6379C26.1218 11.6546 26.0643 11.6821 26.0118 11.7196Z" fill="#667085"/>
</g>
</svg>
