<svg width="24" height="25" viewBox="0 0 24 25" fill="none" xmlns="http://www.w3.org/2000/svg">
<path d="M12 0.394653C8.74 0.394653 8.333 0.409653 7.053 0.466653C5.775 0.526653 4.905 0.727653 4.14 1.02465C3.351 1.33065 2.681 1.74165 2.014 2.40865C1.347 3.07565 0.935 3.74465 0.63 4.53465C0.333 5.29965 0.131 6.16965 0.072 7.44765C0.012 8.72765 0 9.13465 0 12.3947C0 15.6547 0.015 16.0617 0.072 17.3417C0.132 18.6187 0.333 19.4897 0.63 20.2547C0.936 21.0427 1.347 21.7137 2.014 22.3807C2.681 23.0467 3.35 23.4597 4.14 23.7647C4.906 24.0607 5.776 24.2637 7.053 24.3227C8.333 24.3827 8.74 24.3947 12 24.3947C15.26 24.3947 15.667 24.3797 16.947 24.3227C18.224 24.2627 19.095 24.0607 19.86 23.7647C20.648 23.4587 21.319 23.0467 21.986 22.3807C22.652 21.7137 23.065 21.0457 23.37 20.2547C23.666 19.4897 23.869 18.6187 23.928 17.3417C23.988 16.0617 24 15.6547 24 12.3947C24 9.13465 23.985 8.72765 23.928 7.44765C23.868 6.17065 23.666 5.29865 23.37 4.53465C23.064 3.74565 22.652 3.07565 21.986 2.40865C21.319 1.74165 20.651 1.32965 19.86 1.02465C19.095 0.727653 18.224 0.525653 16.947 0.466653C15.667 0.406653 15.26 0.394653 12 0.394653ZM12 2.55465C15.203 2.55465 15.585 2.57065 16.85 2.62565C18.02 2.68065 18.655 2.87465 19.077 3.04065C19.639 3.25765 20.037 3.51765 20.459 3.93665C20.878 4.35665 21.138 4.75565 21.355 5.31765C21.519 5.73965 21.715 6.37465 21.768 7.54465C21.825 8.81065 21.838 9.19065 21.838 12.3947C21.838 15.5987 21.823 15.9797 21.764 17.2447C21.703 18.4147 21.508 19.0497 21.343 19.4717C21.119 20.0337 20.864 20.4317 20.444 20.8537C20.025 21.2727 19.62 21.5327 19.064 21.7497C18.644 21.9137 17.999 22.1097 16.829 22.1627C15.555 22.2197 15.18 22.2327 11.97 22.2327C8.759 22.2327 8.384 22.2177 7.111 22.1587C5.94 22.0977 5.295 21.9027 4.875 21.7377C4.306 21.5137 3.915 21.2587 3.496 20.8387C3.075 20.4197 2.806 20.0147 2.596 19.4587C2.431 19.0387 2.237 18.3937 2.176 17.2237C2.131 15.9637 2.115 15.5747 2.115 12.3797C2.115 9.18365 2.131 8.79365 2.176 7.51865C2.237 6.34865 2.431 5.70465 2.596 5.28465C2.806 4.71465 3.075 4.32465 3.496 3.90365C3.915 3.48465 4.306 3.21465 4.875 3.00565C5.295 2.83965 5.926 2.64465 7.096 2.58465C8.371 2.53965 8.746 2.52465 11.955 2.52465L12 2.55465ZM12 6.23265C8.595 6.23265 5.838 8.99265 5.838 12.3947C5.838 15.7997 8.598 18.5567 12 18.5567C15.405 18.5567 18.162 15.7967 18.162 12.3947C18.162 8.98965 15.402 6.23265 12 6.23265ZM12 16.3947C9.79 16.3947 8 14.6047 8 12.3947C8 10.1847 9.79 8.39465 12 8.39465C14.21 8.39465 16 10.1847 16 12.3947C16 14.6047 14.21 16.3947 12 16.3947ZM19.846 5.98965C19.846 6.78465 19.2 7.42965 18.406 7.42965C17.611 7.42965 16.966 6.78365 16.966 5.98965C16.966 5.19565 17.612 4.55065 18.406 4.55065C19.199 4.54965 19.846 5.19565 19.846 5.98965Z" fill="#98A2B3"/>
</svg>
