<svg width="24" height="25" viewBox="0 0 24 25" fill="none" xmlns="http://www.w3.org/2000/svg">
<path d="M20.447 20.8467H16.893V15.2777C16.893 13.9497 16.866 12.2407 15.041 12.2407C13.188 12.2407 12.905 13.6857 12.905 15.1797V20.8467H9.351V9.39465H12.765V10.9557H12.811C13.288 10.0557 14.448 9.10565 16.181 9.10565C19.782 9.10565 20.448 11.4757 20.448 14.5607L20.447 20.8467ZM5.337 7.82765C4.193 7.82765 3.274 6.90165 3.274 5.76265C3.274 4.62465 4.194 3.69965 5.337 3.69965C6.477 3.69965 7.401 4.62465 7.401 5.76265C7.401 6.90165 6.476 7.82765 5.337 7.82765ZM7.119 20.8467H3.555V9.39465H7.119V20.8467ZM22.225 0.394653H1.771C0.792 0.394653 0 1.16865 0 2.12365V22.6657C0 23.6217 0.792 24.3947 1.771 24.3947H22.222C23.2 24.3947 24 23.6217 24 22.6657V2.12365C24 1.16865 23.2 0.394653 22.222 0.394653H22.225Z" fill="#98A2B3"/>
</svg>
