<svg width="40" height="40" viewBox="0 0 40 40" fill="none" xmlns="http://www.w3.org/2000/svg">
<path d="M16.32 24.1183C16.0975 24.1183 15.915 24.3017 15.915 24.5258C15.915 24.7508 16.0975 24.9342 16.32 24.9342H19.56C19.7825 24.9342 19.965 24.7508 19.965 24.5258C19.965 24.3017 19.7825 24.1183 19.56 24.1183H16.32Z" fill="#667085"/>
<path d="M10.6708 24.4033C10.6708 24.45 10.6624 24.4942 10.6449 24.5367C10.6274 24.5792 10.6024 24.6167 10.5699 24.6492C10.5374 24.6817 10.5008 24.7067 10.4583 24.7242C10.4166 24.7417 10.3724 24.7508 10.3266 24.7508C10.2808 24.7508 10.2374 24.7417 10.1949 24.7242C10.1524 24.7067 10.1158 24.6817 10.0833 24.6492C10.0508 24.6167 10.0258 24.5792 10.0083 24.5367C9.99076 24.4942 9.98242 24.45 9.98242 24.4033C9.98242 24.3575 9.99076 24.3133 10.0083 24.2708C10.0258 24.2283 10.0508 24.1908 10.0833 24.1583C10.1158 24.1258 10.1524 24.1008 10.1949 24.0833C10.2374 24.0658 10.2808 24.0567 10.3266 24.0567C10.3724 24.0567 10.4166 24.0658 10.4583 24.0833C10.5008 24.1008 10.5374 24.1258 10.5699 24.1583C10.6024 24.1908 10.6274 24.2283 10.6449 24.2708C10.6624 24.3133 10.6708 24.3575 10.6708 24.4033Z" fill="#667085"/>
<path d="M9.31407 24.4033C9.31407 24.45 9.30573 24.4942 9.28823 24.5367C9.27073 24.5792 9.24573 24.6167 9.21323 24.6492C9.18073 24.6817 9.14407 24.7067 9.10157 24.7242C9.0599 24.7417 9.01573 24.7508 8.9699 24.7508C8.92407 24.7508 8.88073 24.7417 8.83823 24.7242C8.79573 24.7067 8.75907 24.6817 8.72657 24.6492C8.69407 24.6167 8.66907 24.5792 8.65157 24.5367C8.63407 24.4942 8.62573 24.45 8.62573 24.4033C8.62573 24.3575 8.63407 24.3133 8.65157 24.2708C8.66907 24.2283 8.69407 24.1908 8.72657 24.1583C8.75907 24.1258 8.79573 24.1008 8.83823 24.0833C8.88073 24.0658 8.92407 24.0567 8.9699 24.0567C9.01573 24.0567 9.0599 24.0658 9.10157 24.0833C9.14407 24.1008 9.18073 24.1258 9.21323 24.1583C9.24573 24.1908 9.27073 24.2283 9.28823 24.2708C9.30573 24.3133 9.31407 24.3575 9.31407 24.4033Z" fill="#667085"/>
<mask id="mask0_977_514" style="mask-type:luminance" maskUnits="userSpaceOnUse" x="24" y="15" width="9" height="10">
<path d="M24.3203 15.7867H32.9253V24.5333H24.3203V15.7867Z" fill="white"/>
</mask>
<g mask="url(#mask0_977_514)">
<path d="M32.1341 18.9567C32.0941 18.855 32.0533 18.7733 32.0125 18.6717C32.2758 18.2833 32.2358 17.7533 31.8916 17.4067L31.4866 16.9983C31.3041 16.815 31.0408 16.7125 30.7775 16.7125C30.575 16.7125 30.3933 16.7742 30.2308 16.8758C30.15 16.835 30.0483 16.7942 29.9475 16.7533C29.8458 16.2842 29.4408 15.9583 28.9758 15.9583H28.4083C27.9225 15.9583 27.5175 16.305 27.4366 16.7533C27.335 16.7942 27.2541 16.835 27.1533 16.8758C26.9908 16.7742 26.8091 16.7125 26.6066 16.7125C26.3433 16.7125 26.08 16.815 25.8975 16.9983L25.4925 17.4067C25.1483 17.7533 25.1083 18.2833 25.3716 18.6717C25.3308 18.7525 25.29 18.855 25.25 18.9567C24.7841 19.0592 24.46 19.4667 24.46 19.9358V20.5075C24.46 20.9967 24.8041 21.405 25.25 21.4867C25.29 21.5883 25.3308 21.67 25.3716 21.7725C25.27 21.935 25.2091 22.1192 25.2091 22.3225C25.2091 22.5883 25.3108 22.8533 25.4925 23.0367L25.8975 23.445C26.08 23.6283 26.3433 23.7308 26.6066 23.7308C26.8091 23.7308 26.9908 23.6692 27.1533 23.5675C27.2341 23.6083 27.335 23.6492 27.4366 23.69C27.5375 24.1592 27.9425 24.485 28.4083 24.485H28.9758C29.4616 24.485 29.8666 24.1383 29.9475 23.69C30.0483 23.6492 30.13 23.6083 30.2308 23.5675C30.3933 23.6692 30.575 23.7308 30.7775 23.7308C31.0408 23.7308 31.3041 23.6283 31.4866 23.445L31.8916 23.0367C32.0733 22.8533 32.175 22.5883 32.175 22.3225C32.175 22.1192 32.1141 21.935 32.0125 21.7725C32.0533 21.6908 32.0941 21.5883 32.1341 21.4867C32.6 21.3842 32.9241 20.9767 32.9241 20.5075V19.9358C32.9241 19.4667 32.58 19.0592 32.1341 18.9567ZM32.1141 20.5275C32.1141 20.63 32.0333 20.7117 31.9316 20.7117H31.5066C31.4258 21.16 31.2633 21.5475 31.0208 21.8942L31.3241 22.2008C31.405 22.2825 31.405 22.4042 31.3241 22.4658L30.9191 22.8733C30.8791 22.9142 30.8383 22.935 30.7775 22.935C30.7166 22.935 30.6766 22.9142 30.6358 22.8733L30.3325 22.5675C29.9883 22.8125 29.5833 22.9958 29.1575 23.0575V23.4858C29.1575 23.5875 29.0766 23.6692 28.9758 23.6692H28.4083C28.3075 23.6692 28.2266 23.5875 28.2266 23.4858V23.0983C27.7808 23.0167 27.3958 22.8533 27.0516 22.6083L26.7075 22.8942C26.6675 22.935 26.6266 22.955 26.5658 22.955C26.505 22.955 26.485 22.935 26.4441 22.8942L26.0391 22.4858C25.9583 22.4042 25.9583 22.2825 26.0391 22.2208L26.3433 21.915C26.1 21.5683 25.9183 21.16 25.8575 20.7317H25.4316C25.3308 20.7317 25.25 20.65 25.25 20.5483V19.9767C25.25 19.875 25.3308 19.7933 25.4316 19.7933H25.8366C25.9183 19.3442 26.08 18.9567 26.3233 18.61L26.0391 18.2633C25.9583 18.1817 25.9583 18.0592 26.0391 17.9983L26.4441 17.59C26.485 17.5492 26.5258 17.5292 26.5858 17.5292C26.6466 17.5292 26.6875 17.5492 26.7283 17.59L27.0316 17.8958C27.3758 17.6517 27.7808 17.4675 28.2058 17.4067V16.9783C28.2058 16.8758 28.2866 16.7942 28.3883 16.7942H28.955C29.0566 16.7942 29.1375 16.8758 29.1375 16.9783V17.3858C29.5833 17.4675 29.9675 17.6308 30.3116 17.8758L30.6158 17.57C30.6558 17.5292 30.6966 17.5083 30.7575 17.5083C30.8183 17.5083 30.8583 17.5292 30.8991 17.57L31.3041 17.9775C31.385 18.0592 31.385 18.1817 31.3041 18.2425L31 18.5492C31.2433 18.8958 31.4258 19.3033 31.4866 19.7325H31.9116C32.0125 19.7325 32.0941 19.8133 32.0941 19.9158V20.5275H32.1141Z" fill="#667085"/>
</g>
<path d="M28.6718 18.61C27.7809 18.61 27.0518 19.3442 27.0518 20.2425C27.0518 21.14 27.7809 21.8742 28.6718 21.8742C29.5626 21.8742 30.2918 21.14 30.2918 20.2425C30.2918 19.3442 29.5626 18.61 28.6718 18.61ZM28.6718 21.0583C28.2268 21.0583 27.8618 20.6908 27.8618 20.2425C27.8618 19.7933 28.2268 19.4258 28.6718 19.4258C29.1176 19.4258 29.4818 19.7933 29.4818 20.2425C29.4818 20.6908 29.1176 21.0583 28.6718 21.0583Z" fill="#667085"/>
<mask id="mask1_977_514" style="mask-type:luminance" maskUnits="userSpaceOnUse" x="7" y="11" width="23" height="18">
<path d="M7.00488 11.8783H29.0132V28.1983H7.00488V11.8783Z" fill="white"/>
</mask>
<g mask="url(#mask1_977_514)">
<path d="M16.32 27.3825H15.105C14.8825 27.3825 14.7 27.5658 14.7 27.79C14.7 28.0142 14.8825 28.1983 15.105 28.1983H20.775C20.9975 28.1983 21.18 28.0142 21.18 27.79C21.18 27.5658 20.9975 27.3825 20.775 27.3825H19.56V26.1583H27.6592C28.1859 26.1583 28.6317 25.8117 28.8134 25.3425H28.3884C28.3075 25.3425 28.2267 25.3425 28.145 25.3217H28.125C28.0442 25.3017 27.9834 25.3017 27.9025 25.2808C27.8417 25.3217 27.7609 25.3625 27.68 25.3625H8.22086C7.99836 25.3625 7.81586 25.1792 7.81586 24.9542V23.7308H24.9459L24.885 23.6692C24.5409 23.3225 24.3592 22.8733 24.3592 22.3842C24.3592 22.2825 24.3592 22.16 24.3792 22.0575C23.9134 21.7317 23.61 21.1808 23.61 20.5683V19.9975C23.61 19.385 23.9134 18.8342 24.3792 18.5083C24.3592 18.4058 24.3592 18.2833 24.3592 18.1817C24.3592 17.6925 24.5409 17.2433 24.885 16.8967L25.29 16.4883C25.6342 16.1417 26.08 15.9583 26.5659 15.9583C26.6675 15.9583 26.7884 15.9583 26.89 15.9783C27.2142 15.5092 27.7609 15.2033 28.3684 15.2033H28.8542V13.1025C28.8542 12.4292 28.3075 11.8783 27.6392 11.8783H8.22086C7.55253 11.8783 7.00586 12.4292 7.00586 13.1025V24.9342C7.00586 25.6075 7.55253 26.1583 8.22086 26.1583H16.32V27.3825ZM19.945 15.6925C19.7625 15.5708 19.7017 15.3258 19.8434 15.1217C19.965 14.9383 20.2084 14.8767 20.4109 14.9992L24.055 17.4475C24.1767 17.5292 24.2375 17.6517 24.2375 17.7942C24.2375 17.9367 24.1767 18.0592 24.055 18.1408L20.4109 20.5892C20.2284 20.7117 19.965 20.65 19.8434 20.4867C19.7217 20.3033 19.7625 20.0383 19.945 19.9158L23.0834 17.7942L19.945 15.6925ZM16.7459 20.7525L18.365 14.6325C18.4259 14.4075 18.6492 14.285 18.8717 14.3467C19.0942 14.4075 19.2159 14.6325 19.155 14.8358L17.535 20.9558C17.495 21.14 17.3325 21.2625 17.1509 21.2625C17.11 21.2625 17.09 21.2625 17.0492 21.2417C16.8059 21.1808 16.685 20.9558 16.7459 20.7525ZM11.845 17.4475L15.49 14.9992C15.6725 14.8767 15.9359 14.9175 16.0567 15.1217C16.1784 15.305 16.1384 15.5708 15.9559 15.6925L12.7967 17.7942L15.9359 19.895C16.1175 20.0175 16.1784 20.2825 16.0367 20.4667C15.915 20.65 15.6517 20.7117 15.47 20.5683L11.825 18.1208C11.7034 18.0392 11.6425 17.9167 11.6425 17.7733C11.6634 17.6517 11.7242 17.5292 11.845 17.4475ZM17.13 26.1583H18.75V27.3825H17.13V26.1583Z" fill="#667085"/>
</g>
</svg>
